<?xml version="1.0" encoding="UTF-8" standalone="no"?><!DOCTYPE svg PUBLIC "-//W3C//DTD SVG 1.1//EN" "http://www.w3.org/Graphics/SVG/1.1/DTD/svg11.dtd"><svg width="5315px" height="2250px" version="1.1" xmlns="http://www.w3.org/2000/svg" xmlns:xlink="http://www.w3.org/1999/xlink" xml:space="preserve" xmlns:serif="http://www.serif.com/" style="fill-rule:evenodd;clip-rule:evenodd;stroke-linejoin:round;stroke-miterlimit:2;"><g transform="matrix(1,0,0,1,-1204.818898,-115)"><g transform="matrix(3.117233,0,0,3.117233,674.155035,-329.797847)"><path d="M175,258L175,739L427,486L175,258Z" style="fill:rgb(45,188,139);"/></g><g transform="matrix(3.129247,0,0,3.06277,653.280439,-330.117819)"><path d="M181,263L346,156L345,869L181,752L181,263Z" style="fill:rgb(45,188,139);fill-rule:nonzero;"/></g><g transform="matrix(3.117233,0,0,3.137688,655.451636,-339.065886)"><path d="M181,463L564,155L839,155L181,737L181,463Z" style="fill:rgb(109,224,179);fill-rule:nonzero;"/></g><g transform="matrix(3.113765,0,0,3.14233,658.341235,-342.777027)"><path d="M180,511L564,851L839,851L180,260L180,511Z" style="fill:rgb(109,224,179);fill-rule:nonzero;"/></g></g><g transform="matrix(3.500977,0,0,3.500977,1658,478)"><path d="M244,239C274,205 320,220 333,238C337,243 335,229 335,222C335,220 337,221 363,221C368,221 371,219 371,224C371,235 371,357 370,358C369,360 337,359 336,359C335,358 335,352 335,351C335,346 336,337 333,342C322,357 299,364 279,361C229,353 209,282 244,239L321,257C319,255 304,245 287,252C247,267 259,329 296,331C336,333 348,278 321,257L244,239Z"/><path d="M846,156C824,183 789,182 766,166C747,153 738,127 738,109C737,35 800,25 828,41C844,49 848,60 847,53C847,49 847,38 847,38C848,35 849,36 879,37C882,37 882,38 882,39C882,50 883,173 882,175C881,175 875,175 874,175C849,175 847,176 847,172C847,158 848,157 846,156L835,75C811,53 775,69 774,103C772,157 839,160 846,114C850,88 835,75 835,75L846,156Z" style="fill:rgb(45,188,139);"/><path d="M596,231C600,235 600,235 604,239C607,243 604,222 606,221C610,220 636,221 638,221C641,221 641,222 641,259C641,358 641,358 640,359C639,359 607,360 606,358C605,357 607,337 604,341C582,370 539,364 522,348C478,310 493,232 545,220C560,217 572,220 575,220C582,222 589,226 596,231L591,257C586,253 582,252 578,251C577,250 568,248 560,250C515,264 529,330 567,331C606,332 618,279 591,257L596,231Z"/><path d="M348,48C352,45 376,28 411,37C466,51 461,113 459,116C457,117 362,116 359,116C355,117 362,146 388,148C413,150 416,132 420,131C435,130 452,131 455,131C456,131 455,136 454,136C430,200 329,186 323,117C321,93 323,69 348,48L411,69C390,56 364,64 358,90C358,93 360,93 391,93C421,93 423,93 423,90C423,76 412,70 411,69L348,48Z" style="fill:rgb(45,188,139);"/><path d="M85,342C67,320 67,320 49,298C38,284 38,284 37,283C35,280 36,285 36,326C36,358 36,359 33,359C31,359 2,360 1,359C0,356 1,202 1,188C1,185 1,185 4,185C10,185 34,185 35,185C36,186 36,186 36,244C36,260 35,260 36,261C37,264 37,261 40,258C90,195 91,196 95,190C101,182 103,185 112,185C139,185 142,185 140,187C139,187 70,270 70,270C70,272 71,273 128,342C142,358 144,359 141,359C141,359 105,359 102,359C98,359 98,358 85,342Z"/><path d="M140,3C70,86 70,87 70,88C70,89 103,127 141,172C144,176 140,175 139,175C121,175 104,175 102,175C98,175 99,174 69,139C58,124 58,124 46,110C37,99 37,98 36,99C35,99 36,173 35,174C34,175 19,175 4,175C1,175 1,175 1,172C1,158 0,3 1,1C2,1 35,1 35,2C37,3 36,67 36,72C36,74 35,78 37,78C37,78 37,77 51,60C55,55 97,3 99,2C100,1 100,1 137,1C138,1 138,1 139,1C140,1 139,2 140,3Z" style="fill:rgb(45,188,139);"/><path d="M202,174C191,169 175,167 166,133C164,123 165,38 165,37C166,36 199,37 199,37C201,38 200,81 200,114C200,155 247,156 259,130C265,116 260,41 262,38C262,37 269,37 269,37C296,37 296,37 296,38C298,39 297,162 297,173C297,173 297,175 294,175C266,175 266,175 263,175C260,175 262,163 262,159C261,151 251,187 202,174Z" style="fill:rgb(45,188,139);"/><path d="M520,52C521,52 521,53 522,52C545,24 615,26 617,91C617,95 617,173 617,174C616,176 602,174 585,175C580,175 582,172 582,100C582,52 540,64 533,70C517,81 520,88 520,172C520,175 520,175 518,175C515,175 492,175 487,175C485,175 485,174 485,110C485,38 485,37 487,37C487,37 518,37 518,37C520,37 521,37 520,52Z" style="fill:rgb(45,188,139);"/><path d="M983,68C969,57 951,63 947,69C937,88 972,91 995,100C1035,114 1026,151 1010,164C978,191 913,174 909,137C909,129 913,131 916,131C942,131 943,131 944,134C952,156 984,152 989,140C996,123 967,120 945,114C896,98 912,61 923,50C943,28 1015,23 1022,78C1023,82 1020,80 1015,80C990,80 989,80 989,78C987,73 987,73 983,68Z" style="fill:rgb(45,188,139);"/><path d="M680,344C676,340 668,331 668,318C668,315 669,315 700,315C703,316 703,317 703,319C706,328 716,332 717,332C738,340 756,324 746,313C732,297 671,307 671,260C671,219 732,209 760,228C780,241 781,262 781,264C780,264 775,264 774,264C748,264 747,264 747,262C742,239 710,245 706,255C697,274 736,276 759,286C798,303 785,359 736,361C703,362 693,355 680,344Z"/><path d="M694,142C703,149 722,142 722,147C723,174 722,175 720,175C681,176 656,174 656,130C655,117 656,67 655,66C654,64 639,67 639,64C639,61 638,38 640,37C642,36 655,39 656,35C656,29 655,4 657,3C657,2 657,2 683,2C683,2 690,2 691,3C691,5 690,35 692,36C693,37 720,36 721,38C723,39 722,39 722,63C722,66 719,65 695,65C689,65 691,68 691,74L691,122C691,133 690,137 694,142Z" style="fill:rgb(45,188,139);"/><path d="M201,177C201,191 201,348 201,356C201,360 199,359 176,359C175,359 167,359 166,359C166,358 166,176 166,175C167,174 200,174 201,175C201,176 201,176 201,177Z"/><path d="M462,223C481,216 482,220 482,222C482,234 482,252 482,254C481,261 453,247 442,272C437,285 441,356 439,358C438,360 407,359 405,359C404,358 405,222 405,222C405,221 413,221 414,221C438,221 440,220 440,223C440,240 440,240 440,240C442,245 440,234 462,223Z"/></g></svg>